<svg width="118" height="30" viewBox="0 0 118 30" fill="none" xmlns="http://www.w3.org/2000/svg">
<path d="M72.6598 9.5438V8.25453C72.6598 8.07101 72.5681 7.97695 72.3822 7.97695H69.3724C69.1889 7.97695 69.0948 8.06871 69.0948 8.25453V10.6518C69.0948 11.3882 69.2738 11.9411 69.6316 12.3105C69.9895 12.6798 70.43 12.9712 70.953 13.1868C71.4761 13.4024 72.0496 13.6066 72.6736 13.8016C73.2976 13.9966 73.8711 14.2994 74.3941 14.7078C74.9172 15.1184 75.3576 15.7011 75.7155 16.4581C76.0734 17.2152 76.2523 18.2705 76.2523 19.6217V22.2943C76.2523 22.7852 76.1606 23.2509 75.9748 23.6914C75.7912 24.1318 75.5343 24.5149 75.2062 24.843C74.8782 25.1711 74.4951 25.4257 74.0546 25.6115C73.6142 25.795 73.1485 25.8891 72.6575 25.8891H69.0948C68.6039 25.8891 68.1382 25.7927 67.6977 25.5977C67.2573 25.4028 66.8719 25.1481 66.5461 24.8292C66.218 24.5127 65.9634 24.1341 65.7776 23.6937C65.5941 23.2532 65.5 22.7875 65.5 22.2966V19.9933C65.5 19.8901 65.5344 19.8098 65.6078 19.7479C65.6789 19.6859 65.7661 19.6767 65.8693 19.718L68.8792 20.4544C69.0214 20.4957 69.0948 20.5875 69.0948 20.732V22.0213C69.0948 22.2048 69.1866 22.2989 69.3724 22.2989H72.3822C72.5658 22.2989 72.6598 22.2071 72.6598 22.0213V19.624C72.6598 18.8669 72.4809 18.3072 72.123 17.9493C71.7651 17.5914 71.3247 17.3047 70.8016 17.089C70.2786 16.8734 69.705 16.6692 69.0811 16.4742C68.4571 16.2792 67.8835 15.9787 67.3605 15.568C66.8375 15.1574 66.397 14.5747 66.0391 13.8177C65.6812 13.0606 65.5023 12.0053 65.5023 10.6541V7.98154C65.5023 7.4906 65.5941 7.02491 65.7799 6.58444C65.9634 6.14398 66.2203 5.76087 66.5484 5.43282C66.8764 5.10476 67.2596 4.85012 67.7 4.6643C68.1405 4.48078 68.6062 4.38672 69.0971 4.38672H72.6598C73.1507 4.38672 73.6164 4.47848 74.0569 4.6643C74.4974 4.84783 74.8805 5.10476 75.2085 5.43282C75.5366 5.76087 75.7912 6.14398 75.9771 6.58444C76.1606 7.02491 76.2546 7.4906 76.2546 7.98154V10.2848C76.2546 10.388 76.2179 10.4683 76.1468 10.5303C76.0757 10.5922 75.9885 10.6014 75.8853 10.5601L72.8755 9.82368C72.7309 9.78239 72.6598 9.69062 72.6598 9.5461V9.5438ZM85.3392 6.10269C85.7911 6.10269 86.2201 6.18757 86.6262 6.35733C87.0322 6.52709 87.3855 6.76338 87.686 7.06391C87.9865 7.36443 88.2228 7.71772 88.3926 8.12377C88.5624 8.52982 88.6472 8.95652 88.6472 9.41075V14.3568C88.6472 14.8087 88.5578 15.2377 88.3788 15.6438C88.1999 16.0498 87.9636 16.3985 87.6722 16.6899C87.3809 16.9812 87.0322 17.2129 86.6262 17.3827C86.2201 17.5524 85.7934 17.6373 85.3392 17.6373H82.0609V25.6367C82.0609 25.8065 81.9669 25.8914 81.7788 25.8914H79.0098C78.8401 25.8914 78.7552 25.8065 78.7552 25.6367V6.35733C78.7552 6.18757 78.8401 6.10269 79.0098 6.10269H85.3415H85.3392ZM85.0845 14.3568C85.2543 14.3568 85.3392 14.2627 85.3392 14.0746V9.66539C85.3392 9.49563 85.2543 9.41075 85.0845 9.41075H82.0609V14.3568H85.0845ZM93.4786 6.35733V25.6345C93.4786 25.8042 93.3845 25.8891 93.1964 25.8891H90.4274C90.2577 25.8891 90.1728 25.8042 90.1728 25.6345V6.35733C90.1728 6.18757 90.2577 6.10269 90.4274 6.10269H93.1964C93.3845 6.10269 93.4786 6.18757 93.4786 6.35733ZM95.6832 6.35733C95.6832 6.18757 95.768 6.10269 95.9378 6.10269H98.7916C98.9224 6.10269 99.0073 6.16922 99.0463 6.29998L102.269 17.635V6.35733C102.269 6.18757 102.364 6.10269 102.552 6.10269H105.321C105.49 6.10269 105.575 6.18757 105.575 6.35733V25.6345C105.575 25.8042 105.49 25.8891 105.321 25.8891H102.467C102.373 25.8891 102.288 25.8226 102.212 25.6918L98.9889 14.3568V25.6345C98.9889 25.8042 98.8949 25.8891 98.7068 25.8891H95.9378C95.768 25.8891 95.6832 25.8042 95.6832 25.6345V6.35733ZM113.802 10.8514V9.66539C113.802 9.49563 113.717 9.41075 113.547 9.41075H110.778C110.608 9.41075 110.524 9.49563 110.524 9.66539V11.87C110.524 12.549 110.689 13.056 111.019 13.3956C111.349 13.7351 111.753 14.0035 112.235 14.2008C112.717 14.3981 113.242 14.5862 113.818 14.7651C114.391 14.9441 114.921 15.2216 115.401 15.5979C115.88 15.9741 116.286 16.5132 116.617 17.2083C116.947 17.9057 117.112 18.8761 117.112 20.1195V22.5787C117.112 23.0307 117.027 23.4597 116.858 23.8657C116.688 24.2718 116.451 24.6251 116.151 24.9256C115.85 25.2261 115.497 25.4624 115.091 25.6322C114.685 25.8019 114.258 25.8868 113.804 25.8868H110.526C110.074 25.8868 109.645 25.7973 109.239 25.6184C108.833 25.4395 108.48 25.2032 108.179 24.9118C107.878 24.6205 107.642 24.2718 107.472 23.8657C107.303 23.4597 107.218 23.033 107.218 22.5787V20.459C107.218 20.365 107.25 20.2893 107.316 20.2319C107.383 20.1746 107.463 20.1654 107.557 20.2044L110.326 20.8834C110.457 20.9224 110.524 21.0073 110.524 21.1381V22.3241C110.524 22.4939 110.608 22.5787 110.778 22.5787H113.547C113.717 22.5787 113.802 22.4939 113.802 22.3241V20.1195C113.802 19.4221 113.637 18.9082 113.306 18.5802C112.976 18.2498 112.572 17.986 112.09 17.7887C111.611 17.5914 111.083 17.4033 110.507 17.2244C109.932 17.0454 109.404 16.7678 108.925 16.3916C108.445 16.0154 108.039 15.4786 107.709 14.7812C107.378 14.0838 107.213 13.1134 107.213 11.87V9.41075C107.213 8.95881 107.298 8.52982 107.468 8.12377C107.638 7.71772 107.874 7.36443 108.174 7.06391C108.475 6.76338 108.828 6.52709 109.234 6.35733C109.64 6.18757 110.067 6.10269 110.521 6.10269H113.799C114.251 6.10269 114.68 6.18757 115.086 6.35733C115.493 6.52709 115.846 6.76338 116.146 7.06391C116.447 7.36443 116.683 7.71772 116.853 8.12377C117.023 8.52982 117.108 8.95652 117.108 9.41075V11.5305C117.108 11.6245 117.075 11.7002 117.009 11.7576C116.942 11.8149 116.862 11.8241 116.768 11.7851L113.999 11.1061C113.866 11.0694 113.802 10.9845 113.802 10.8514Z" fill="url(#paint0_linear_19313_777)"/>
<path d="M38.5344 6.10273C38.9863 6.10273 39.4153 6.18762 39.8213 6.35738C40.2274 6.52714 40.5807 6.76343 40.8812 7.06395C41.1817 7.36448 41.418 7.71776 41.5878 8.12382C41.7575 8.52987 41.8424 8.95657 41.8424 9.41079V22.5811C41.8424 23.033 41.7575 23.462 41.5878 23.8681C41.418 24.2741 41.1817 24.6274 40.8812 24.9279C40.5807 25.2285 40.2274 25.4647 39.8213 25.6345C39.4153 25.8043 38.9886 25.8891 38.5344 25.8891H35.2561C34.8042 25.8891 34.3752 25.8043 33.9691 25.6345C33.5631 25.4647 33.2098 25.2285 32.9093 24.9279C32.6088 24.6274 32.3725 24.2741 32.2027 23.8681C32.0329 23.462 31.9481 23.0353 31.9481 22.5811V9.41079C31.9481 8.95886 32.0329 8.52987 32.2027 8.12382C32.3725 7.71776 32.6088 7.36448 32.9093 7.06395C33.2098 6.76343 33.5631 6.52714 33.9691 6.35738C34.3752 6.18762 34.8019 6.10273 35.2561 6.10273H38.5344ZM38.2797 22.5811C38.4495 22.5811 38.5344 22.4962 38.5344 22.3264V9.66314C38.5344 9.49338 38.4495 9.4085 38.2797 9.4085H35.5108C35.341 9.4085 35.2561 9.49338 35.2561 9.66314V22.3264C35.2561 22.4962 35.341 22.5811 35.5108 22.5811H38.2797ZM43.4804 6.35738C43.4804 6.18762 43.5653 6.10273 43.735 6.10273H46.5889C46.7196 6.10273 46.8045 6.16926 46.8435 6.30003L50.0667 17.6351V6.35738C50.0667 6.18762 50.1607 6.10273 50.3488 6.10273H53.1178C53.2876 6.10273 53.3724 6.18762 53.3724 6.35738V25.6345C53.3724 25.8043 53.2876 25.8891 53.1178 25.8891H50.264C50.1699 25.8891 50.085 25.8226 50.0093 25.6919L46.7861 14.3568V25.6345C46.7861 25.8043 46.6921 25.8891 46.504 25.8891H43.735C43.5653 25.8891 43.4804 25.8043 43.4804 25.6345V6.35738ZM54.7581 6.44226C54.7191 6.3482 54.7305 6.26791 54.7856 6.20138C54.8429 6.13485 54.9164 6.10273 55.0127 6.10273H57.7266C57.8574 6.10273 57.9422 6.16009 57.9812 6.2725L59.5917 12.377L61.1746 6.2725C61.2113 6.16009 61.2962 6.10273 61.4292 6.10273H64.1707C64.2647 6.10273 64.3358 6.13485 64.3817 6.20138C64.4276 6.26791 64.4345 6.3482 64.3955 6.44226L61.2296 15.9948V25.6322C61.2296 25.802 61.1356 25.8869 60.9475 25.8869H58.2061C58.0179 25.8869 57.9239 25.802 57.9239 25.6322V15.9948L54.7581 6.44226ZM30.9341 4.38218H20.7346C20.5511 4.38218 20.457 4.47394 20.457 4.65976V4.97634C21.7922 5.42828 22.3909 6.43996 22.4896 7.40577C22.5056 7.55947 22.5125 7.75447 22.4965 7.97929H24.0518V25.6139C24.0518 25.7974 24.1436 25.8914 24.3294 25.8914H27.3393C27.5228 25.8914 27.6168 25.7997 27.6168 25.6139V7.97699H30.1059C30.2481 7.97699 30.3422 7.90588 30.3835 7.76135L31.214 4.65747C31.214 4.47394 31.1222 4.37988 30.9364 4.37988L30.9341 4.38218Z" fill="white"/>
<path d="M20.8445 18.2639C20.232 17.6858 19.2731 16.7613 19.0414 16.486C18.7478 16.1396 18.3578 15.9607 18.0091 15.8689L17.9265 15.3023H17.9242C18.2293 14.8641 18.4771 14.3388 18.6399 13.7423C18.9565 12.5884 18.8716 11.4987 18.4702 10.7072C18.4794 10.5719 18.4771 10.4434 18.4702 10.3264C20.255 9.68178 21.1634 8.71139 21.0441 7.55059C20.9914 7.0413 20.6358 6.18561 18.8441 6.18561C18.3853 6.18561 17.9012 6.23837 17.5067 6.29573C17.3965 5.83232 17.2314 5.14639 17.0043 4.19206C16.4124 1.73281 14.9878 0.709649 12.0766 0.65918C12.0215 0.65918 11.9642 0.65918 11.9091 0.65918C10.0119 0.65918 8.62859 1.20058 7.98854 1.51258C7.64672 1.40934 7.13285 1.29005 6.59145 1.29005C5.96287 1.29005 5.43523 1.44834 5.01771 1.76263C4.58184 2.09068 4.11843 2.79497 3.68715 5.70385C3.55868 6.56184 3.46921 7.38312 3.41415 7.93828C3.11363 7.98417 2.75346 8.0484 2.39099 8.13787C1.81977 8.27781 0.0808584 8.69992 0.00285978 10.0144C-0.0223751 10.4297 0.119858 10.8128 0.411206 11.1225C0.606202 11.3312 1.17972 11.9369 3.44168 12.008C3.44168 12.0676 3.44627 12.1227 3.45315 12.1754C3.50133 12.5219 3.73303 12.8637 4.14367 13.1986C4.11155 13.3133 4.07485 13.4532 4.03355 13.6276C3.87067 14.3112 4.18267 15.043 4.51072 15.8184C4.62084 16.0754 4.73325 16.3415 4.82272 16.5938C5.07965 17.3142 5.33659 18.5805 5.58435 19.8032C5.63941 20.0694 5.69217 20.3309 5.74493 20.5855C5.98122 21.728 6.94474 22.3841 8.38542 22.3841C8.39459 22.3841 8.40606 22.3841 8.41524 22.3841C8.50471 22.3841 8.624 22.3726 8.75476 22.3589L7.61231 26.7199L10.7047 29.9844L18.0389 17.7913C17.8324 17.1444 17.3621 17.1605 17.3621 17.1605C15.9306 19.739 12.5148 21.9115 10.9731 22.797C11.1544 23.4164 11.5627 24.6438 12.2395 25.8711C12.2395 25.8711 10.98 24.9259 10.4111 23.1113C10.2711 23.187 10.1931 23.226 10.1931 23.226C9.56916 22.9117 8.98646 21.4619 8.98646 21.4619C8.98646 21.4619 8.72953 21.51 8.38083 21.51C7.73849 21.51 6.78874 21.3449 6.59604 20.4066C6.29551 18.9613 5.97893 17.2431 5.6417 16.2979C5.30447 15.3527 4.74242 14.3984 4.87777 13.8249C5.01312 13.2514 5.07736 13.1527 5.07736 13.1527L4.97642 12.726C4.97642 12.726 4.35013 12.3177 4.31343 12.0539C4.28131 11.8176 4.39602 11.2555 4.41896 11.1477C5.7977 10.9986 7.22003 10.6935 8.14913 10.4159C9.37875 10.0488 10.6428 9.58314 11.8678 9.1312C13.8728 8.39251 15.9444 7.62858 17.8577 7.30283C19.1882 7.07571 19.9613 7.16748 20.1563 7.57123C20.1609 7.59417 20.1655 7.61482 20.1701 7.63776C20.2802 8.70221 18.656 9.39732 17.47 9.72308C17.4287 9.73455 17.7154 10.2622 17.5801 10.9183C17.9724 11.5125 18.0756 12.4806 17.7934 13.5083C17.6214 14.1323 17.3415 14.6645 17.002 15.0591L17.236 16.6512C17.236 16.6512 17.2543 16.6512 17.2887 16.6512C17.4677 16.6512 18.0572 16.681 18.3669 17.0481C18.734 17.4839 20.3307 18.9843 20.3307 18.9843L22.5628 20.113V19.1357L20.8377 18.2639H20.8445ZM11.6705 8.58751C10.4547 9.03485 9.19752 9.49826 7.98625 9.86072C5.50176 10.604 1.93447 10.9711 1.05814 10.3333C0.915902 10.2301 0.89755 10.1337 0.895256 10.0603H0.874609C0.950314 8.99356 4.27214 8.71139 4.27214 8.71139L4.21937 8.70451C4.21937 8.70451 4.65525 3.12761 5.54306 2.46003C5.83899 2.2375 6.21751 2.16409 6.59145 2.16409C6.91032 2.16409 7.22232 2.21686 7.47926 2.2788C7.19479 2.51279 6.92638 2.76744 6.66256 3.03355C6.50657 3.20102 6.74056 3.44648 6.91491 3.29507C7.31638 2.96014 7.75913 2.6252 8.22712 2.37056C8.66529 2.13657 9.98898 1.53322 11.9091 1.53322C11.9596 1.53322 12.0101 1.53322 12.0605 1.53322C12.3266 1.53781 12.5744 1.55158 12.8107 1.57222C12.9873 1.59975 14.116 1.80163 14.5312 2.59309C14.9006 3.30196 15.0474 4.21041 12.9369 5.62815C12.9369 5.62815 14.2628 5.44692 15.1552 5.50198C15.6141 5.5295 16.0958 5.60521 16.4583 5.67174C16.6005 6.26361 16.6991 6.67425 16.7611 6.93577C15.0933 7.32577 13.359 7.96352 11.6728 8.58521L11.6705 8.58751ZM17.3759 13.3982C17.72 12.1502 17.4355 10.9825 16.7427 10.7921C16.0499 10.6017 15.2103 11.4597 14.8662 12.7077C14.8524 12.7604 14.8409 12.8132 14.8272 12.866L13.983 12.8361C13.983 12.8361 14.1275 11.0536 13.5104 10.8976L11.354 11.6501L11.721 11.93C11.8632 12.0401 11.8724 12.2534 11.7348 12.3704C11.3631 12.6939 10.6267 13.2651 9.81462 13.5312C10.1587 13.8685 10.6474 14.0268 10.9594 14.0979C11.1475 14.1392 11.292 14.2929 11.3172 14.4833C11.3815 15.0132 11.2553 15.3321 11.2553 15.3321C11.0557 14.7586 10.6864 14.5567 10.1014 14.0864C9.67239 13.74 9.33287 13.6758 9.15623 13.6689C9.11493 13.6712 9.07364 13.6735 9.03005 13.6758H9.02776C8.79835 13.6804 8.57124 13.6482 8.351 13.5679C7.79125 13.3638 6.89197 12.4324 6.54327 13.1206L6.03858 15.0362C5.9904 15.222 6.02022 15.4262 6.1441 15.5753C6.27716 15.7336 6.52721 15.8528 6.98603 15.6831C7.90595 15.3436 8.2386 15.3229 8.40836 15.4583C8.61024 15.6166 8.26383 15.768 7.88531 15.8001C7.8096 15.807 7.74307 15.8299 7.6926 15.8551C7.62608 15.8873 7.58937 15.9584 7.59396 16.0318L7.63296 16.6007C7.63984 16.6971 7.59625 16.7888 7.51825 16.8462L7.46549 16.8852C7.41732 16.9196 7.34849 16.8875 7.3462 16.8278L7.32555 16.3507L7.06632 16.4883L7.0365 16.9334C7.02503 17.0894 7.15809 17.2178 7.31408 17.1972C7.35538 17.1926 7.40126 17.1811 7.44943 17.1651C7.70408 17.0802 7.85778 17.0779 8.39 17.2018C8.56206 17.2408 8.74329 17.305 8.91076 17.3715C8.91076 17.3715 8.91076 17.3715 8.91305 17.3715C8.96123 17.3899 9.00711 17.4105 9.0507 17.4289C9.21816 17.4931 9.47281 17.5734 9.4751 17.461C9.4751 17.383 9.45904 17.1467 9.45904 17.1467C9.45904 17.1467 9.87198 17.3784 9.98898 17.6422C10.106 17.906 9.96603 17.9932 9.78021 17.8418C9.64486 17.7317 9.5921 17.6812 9.42004 17.6698C9.23881 17.6835 8.90158 17.7133 8.71576 17.7707C8.33036 17.89 7.60543 18.3144 7.60543 18.3144L7.62608 18.5094L7.92889 18.5048C8.27759 18.5002 8.61941 18.6149 8.89011 18.8374C9.08052 18.9957 9.26634 19.177 9.31222 19.3215C9.40858 19.6358 8.61024 19.1999 8.14913 19.3467C7.68802 19.4913 7.73619 20.0258 7.73619 20.0258C7.73619 20.0258 7.8096 21.455 10.3423 20.7048C12.8749 19.9524 14.4877 18.1469 14.4877 18.1469C14.4877 18.1469 13.3727 20.4135 12.852 20.9939C12.852 20.9939 15.6622 19.0691 16.8506 17.1031L16.4468 15.0178C16.8391 14.6806 17.1901 14.1002 17.3828 13.3982H17.3759ZM10.317 16.7017C10.317 16.7017 9.95457 16.0111 9.59898 15.612C9.2434 15.2128 8.94976 15.2656 8.94976 15.2656L8.7777 15.2862C8.7777 15.2862 8.99105 14.793 8.3923 14.3479C8.3923 14.3479 8.96582 14.2837 9.67469 15.1922C10.3836 16.1006 10.3193 16.7017 10.3193 16.7017H10.317ZM15.2883 15.8781L14.7331 17.2729L14.9488 14.8251C15.0818 15.0729 15.2654 15.2472 15.4971 15.3114C15.6989 15.3665 15.9146 15.3321 16.1279 15.2243C15.8641 15.846 15.2883 15.8781 15.2883 15.8781ZM16.3344 11.9873C15.9146 12.1112 15.4856 12.9325 15.4856 12.9325C15.4856 12.9325 15.91 11.0422 16.745 11.345C17.5824 11.6478 16.963 13.4785 16.963 13.4785C16.963 13.4785 17.314 11.696 16.3344 11.9873Z" fill="white"/>
<path d="M10.4007 23.0542H10.2057H9.9602L9.07698 23.536L8.78104 24.8963L8.90722 25.8805C8.90722 25.8805 8.52181 26.4953 8.08594 27.2202L9.98314 29.223C10.1185 28.2319 10.2447 27.1537 10.3066 26.1925L10.9604 25.4997L11.3779 24.9675C11.0247 24.5041 10.6415 23.864 10.3961 23.0542H10.4007Z" fill="#067158"/>
<defs>
<linearGradient id="paint0_linear_19313_777" x1="91.3061" y1="4.38213" x2="91.3061" y2="25.8868" gradientUnits="userSpaceOnUse">
<stop stop-color="#FFE46E"/>
<stop offset="1" stop-color="#CF8D3C"/>
</linearGradient>
</defs>
</svg>
